<?xml version="1.0" standalone="no"?>
<!DOCTYPE svg PUBLIC "-//W3C//DTD SVG 20010904//EN"
 "http://www.w3.org/TR/2001/REC-SVG-20010904/DTD/svg10.dtd">
<svg version="1.0" xmlns="http://www.w3.org/2000/svg"
 width="1166.000000pt" height="695.000000pt" viewBox="0 0 1166.000000 695.000000"
 preserveAspectRatio="xMidYMid meet">

<g transform="translate(0.000000,695.000000) scale(0.100000,-0.100000)"
fill="#000000" stroke="none">
<path d="M5545 6350 c-219 -30 -407 -187 -482 -401 -76 -220 -17 -485 147
-648 78 -78 190 -141 287 -161 86 -18 264 -8 334 19 76 29 170 91 224 147 l45
46 0 -96 0 -96 75 0 75 0 0 585 0 585 -75 0 -75 0 0 -106 0 -106 -52 58 c-127
138 -307 201 -503 174z m265 -165 c119 -47 225 -154 271 -272 46 -119 36 -291
-23 -407 -58 -113 -200 -212 -338 -237 -230 -41 -471 126 -524 361 -20 87 -20
140 -1 215 44 171 156 294 313 346 73 24 234 21 302 -6z"/>
<path d="M7105 6350 c-123 -17 -227 -71 -322 -168 l-63 -65 0 107 0 106 -75 0
-75 0 0 -800 0 -800 75 0 75 0 0 311 0 312 53 -50 c70 -67 150 -119 222 -144
75 -27 238 -37 327 -20 207 40 403 231 453 442 19 83 19 248 0 323 -52 199
-233 384 -421 430 -80 20 -176 26 -249 16z m204 -159 c33 -10 80 -30 104 -44
60 -35 146 -131 179 -199 133 -272 -21 -604 -313 -673 -81 -19 -130 -19 -204
0 -131 34 -253 122 -308 223 -50 93 -68 220 -47 333 23 121 116 257 218 316
107 63 255 80 371 44z"/>
<path d="M8522 6350 c-82 -12 -122 -25 -206 -68 -128 -67 -241 -207 -289 -357
-18 -56 -22 -94 -22 -190 0 -147 24 -233 97 -342 84 -125 211 -215 349 -248
82 -19 236 -19 318 0 194 46 358 202 427 405 30 87 27 291 -5 389 -92 281
-370 452 -669 411z m203 -155 c155 -41 287 -176 330 -340 40 -157 -2 -322
-114 -447 -142 -158 -400 -184 -588 -59 -82 56 -132 121 -173 226 -32 81 -33
233 -3 316 86 235 318 363 548 304z"/>
<path d="M10358 6349 c-233 -31 -443 -224 -499 -459 -19 -80 -17 -252 5 -325
56 -189 198 -340 382 -407 82 -29 273 -37 364 -14 110 28 187 73 275 161 126
125 175 246 175 427 0 125 -13 184 -62 287 -71 150 -224 278 -374 315 -81 20
-186 26 -266 15z m205 -154 c87 -23 136 -51 208 -124 98 -99 138 -196 139
-337 0 -130 -56 -260 -150 -348 -89 -82 -178 -116 -306 -116 -122 0 -223 40
-312 123 -192 183 -198 478 -12 671 120 125 275 172 433 131z"/>
<path d="M9460 5745 l0 -585 75 0 75 0 0 585 0 585 -75 0 -75 0 0 -585z"/>
<path d="M9459 4947 c-64 -43 -72 -132 -18 -186 56 -56 148 -46 189 21 69 113
-61 239 -171 165z"/>
<path d="M5978 4577 c-71 -21 -120 -58 -153 -118 l-30 -54 -3 -782 -3 -783
121 0 120 0 0 525 0 525 120 0 120 0 0 105 0 105 -120 0 -120 0 0 114 c0 107
1 116 22 130 36 26 96 17 201 -28 l37 -16 0 124 0 124 -67 17 c-93 23 -188 28
-245 12z"/>
<path d="M9872 3788 l3 -773 23 -50 c30 -65 56 -93 117 -121 62 -29 182 -32
286 -7 l69 16 0 125 c0 114 -1 124 -17 116 -134 -58 -216 -65 -233 -18 -6 15
-10 316 -10 755 l0 729 -120 0 -121 0 3 -772z"/>
<path d="M7049 4458 c-23 -40 -50 -88 -60 -105 -11 -18 -28 -49 -40 -68 l-21
-35 129 0 128 0 78 134 c42 74 77 137 77 140 0 3 -56 6 -125 6 l-124 0 -42
-72z"/>
<path d="M6870 4114 c-109 -28 -199 -81 -286 -168 -147 -148 -200 -285 -191
-500 3 -85 11 -140 25 -186 59 -182 208 -337 390 -407 55 -21 89 -27 187 -31
72 -2 144 0 177 7 66 14 186 70 238 111 21 17 41 30 44 30 3 0 6 -29 6 -65 l0
-65 120 0 120 0 0 630 0 630 -120 0 -120 0 0 -65 0 -66 -52 40 c-68 50 -143
87 -215 106 -73 19 -249 19 -323 -1z m355 -252 c294 -138 330 -566 62 -747
-282 -191 -657 11 -657 355 0 118 39 215 123 307 82 89 176 125 313 120 77 -4
102 -9 159 -35z"/>
<path d="M8430 4109 c-243 -63 -426 -243 -487 -479 -20 -79 -22 -243 -4 -320
53 -223 242 -410 477 -470 57 -15 111 -20 204 -20 193 0 321 38 445 133 60 45
146 146 149 173 0 7 -39 40 -88 73 l-88 59 -59 -62 c-123 -131 -310 -186 -482
-141 -83 22 -133 50 -199 113 -170 161 -179 424 -22 593 91 96 202 141 349
141 156 -1 256 -44 361 -159 l51 -55 92 57 c50 31 91 58 91 61 0 3 -15 28 -33
57 -74 116 -234 221 -382 252 -101 21 -282 19 -375 -6z"/>
<path d="M9410 3470 l0 -630 120 0 120 0 0 630 0 630 -120 0 -120 0 0 -630z"/>
<path d="M4240 2650 c0 -15 5 -20 18 -18 9 2 17 10 17 18 0 8 -8 16 -17 18
-13 2 -18 -3 -18 -18z"/>
<path d="M4320 2525 c0 -90 4 -145 10 -145 6 0 10 55 10 145 0 90 -4 145 -10
145 -6 0 -10 -55 -10 -145z"/>
<path d="M4992 2653 c5 -26 38 -29 38 -4 0 15 -6 21 -21 21 -14 0 -19 -5 -17
-17z"/>
<path d="M6735 2660 c-8 -14 3 -30 21 -30 8 0 14 9 14 20 0 21 -24 28 -35 10z"/>
<path d="M8990 2644 c-6 -14 -10 -34 -10 -44 0 -10 -6 -21 -12 -23 -10 -4 -10
-6 0 -6 9 -1 12 -27 12 -96 0 -78 3 -95 15 -95 12 0 15 17 15 95 0 92 1 95 23
96 l22 0 -22 9 c-30 12 -32 60 -3 67 28 8 25 23 -5 23 -18 0 -28 -7 -35 -26z"/>
<path d="M9080 2649 c0 -25 33 -22 38 4 2 12 -3 17 -17 17 -15 0 -21 -6 -21
-21z"/>
<path d="M9820 2525 c0 -90 4 -145 10 -145 6 0 10 55 10 145 0 90 -4 145 -10
145 -6 0 -10 -55 -10 -145z"/>
<path d="M10080 2609 l0 -60 -26 20 c-67 53 -163 2 -164 -86 0 -86 83 -137
155 -94 28 16 35 17 35 6 0 -8 5 -15 10 -15 6 0 10 55 10 145 0 90 -4 145 -10
145 -6 0 -10 -27 -10 -61z m-22 -75 c39 -44 21 -113 -36 -135 -56 -21 -121 39
-107 101 15 69 94 88 143 34z"/>
<path d="M5931 2651 c-59 -8 -65 -28 -9 -25 57 3 55 2 62 19 3 8 2 14 -2 13
-4 0 -27 -4 -51 -7z"/>
<path d="M7970 2624 c0 -28 -5 -37 -22 -42 l-22 -5 22 -8 c20 -8 22 -15 22
-99 0 -53 4 -90 10 -90 6 0 10 37 10 90 0 84 2 91 22 99 l22 8 -22 5 c-17 5
-22 14 -22 42 0 20 -4 36 -10 36 -5 0 -10 -16 -10 -36z"/>
<path d="M8796 2645 c-3 -9 0 -15 8 -15 8 0 16 7 20 15 3 9 0 15 -8 15 -8 0
-16 -7 -20 -15z"/>
<path d="M4683 2573 c-14 -9 -23 -11 -23 -4 0 6 -4 11 -10 11 -6 0 -10 -40
-10 -100 0 -116 16 -135 22 -25 4 78 13 97 55 109 15 5 28 1 42 -13 18 -18 21
-34 21 -96 0 -43 4 -75 10 -75 6 0 10 24 10 54 0 68 12 100 45 122 23 15 27
15 50 0 23 -15 25 -22 25 -96 0 -67 3 -80 16 -80 25 0 16 160 -10 189 -24 27
-66 27 -99 1 l-26 -21 -21 21 c-24 24 -66 25 -97 3z"/>
<path d="M5130 2573 c-17 -12 -25 -13 -28 -5 -2 7 -8 12 -13 12 -5 0 -9 -45
-9 -100 0 -60 4 -100 10 -100 6 0 10 29 10 66 0 59 3 68 29 95 34 33 50 36 80
12 17 -14 22 -34 28 -95 8 -107 26 -100 22 8 -4 76 -7 88 -28 105 -29 24 -69
24 -101 2z"/>
<path d="M5358 2574 c-36 -19 -48 -43 -48 -97 0 -84 82 -131 155 -88 28 16 35
17 35 6 0 -8 5 -15 10 -15 6 0 10 40 10 100 0 60 -4 100 -10 100 -5 0 -10 -7
-10 -16 0 -13 -5 -12 -26 5 -31 24 -78 26 -116 5z m120 -40 c29 -33 28 -76 -2
-110 -67 -79 -189 19 -130 104 33 48 92 50 132 6z"/>
<path d="M5624 2571 c-38 -23 -58 -70 -50 -115 7 -34 46 -76 71 -76 6 0 24
-11 40 -24 34 -29 25 -51 -16 -42 -16 3 -29 1 -29 -4 0 -6 20 -10 45 -10 43 0
45 1 45 30 0 24 -4 30 -22 31 -20 0 -19 2 7 11 35 13 66 38 60 48 -3 4 -22 -1
-42 -11 -24 -12 -47 -17 -63 -14 -104 26 -88 170 20 170 22 0 46 -8 58 -18 17
-16 32 -14 32 4 0 15 -58 39 -92 39 -18 0 -47 -9 -64 -19z"/>
<path d="M5880 2577 c-14 -7 -33 -29 -43 -49 -25 -51 -9 -111 36 -138 39 -24
68 -25 110 -4 21 12 32 13 35 5 2 -6 8 -11 13 -11 5 0 9 45 9 100 0 55 -4 100
-9 100 -5 0 -11 -5 -13 -12 -3 -8 -11 -7 -28 5 -29 20 -75 22 -110 4z m112
-34 c41 -37 30 -111 -21 -138 -38 -19 -75 -11 -101 22 -64 82 45 185 122 116z"/>
<path d="M6125 2557 c-45 -45 -49 -99 -9 -146 75 -89 215 -12 183 102 -13 47
-40 68 -93 74 -42 5 -48 3 -81 -30z m133 -23 c65 -73 -36 -184 -109 -118 -34
30 -41 61 -24 99 29 59 89 68 133 19z"/>
<path d="M6538 2574 c-31 -16 -58 -61 -58 -96 0 -39 35 -85 75 -98 44 -14 96
-6 119 19 24 27 10 31 -32 9 -23 -11 -46 -16 -62 -13 -104 26 -88 170 20 170
22 0 46 -8 58 -18 17 -16 32 -14 32 4 0 15 -58 39 -92 39 -18 -1 -45 -7 -60
-16z"/>
<path d="M6866 2569 c-21 -17 -26 -18 -26 -5 0 9 -4 16 -10 16 -6 0 -10 -40
-10 -100 0 -115 16 -135 22 -29 3 63 7 74 31 95 61 52 100 18 105 -92 3 -41 9
-74 14 -74 6 0 9 33 7 86 -4 76 -7 88 -28 105 -30 25 -72 24 -105 -2z"/>
<path d="M7098 2574 c-36 -19 -48 -43 -48 -97 0 -81 78 -128 153 -92 32 15 54
41 43 52 -2 2 -21 -8 -42 -22 -45 -31 -77 -27 -111 11 -42 47 -33 54 72 54 90
0 95 1 95 21 0 12 -15 36 -34 55 -38 38 -81 44 -128 18z m115 -36 c9 -11 17
-24 17 -29 0 -5 -34 -9 -75 -9 -79 0 -94 11 -57 42 37 33 85 32 115 -4z"/>
<path d="M7360 2573 c-17 -12 -25 -13 -28 -5 -2 7 -8 12 -13 12 -5 0 -9 -45
-9 -100 0 -60 4 -100 10 -100 6 0 10 24 10 54 0 68 12 100 45 122 23 15 27 15
50 0 23 -15 25 -22 25 -96 0 -64 3 -80 15 -80 12 0 15 14 15 70 0 62 3 74 25
95 29 30 49 31 75 5 16 -16 20 -33 20 -95 0 -43 4 -75 10 -75 6 0 10 35 10 85
0 72 -3 88 -20 105 -25 25 -70 26 -102 0 -25 -19 -26 -19 -43 0 -22 24 -62 26
-95 3z"/>
<path d="M7725 2578 c-62 -34 -75 -116 -26 -170 25 -28 36 -33 74 -33 30 0 52
6 66 19 19 17 21 17 21 3 0 -10 5 -17 10 -17 6 0 10 40 10 100 0 60 -4 100
-10 100 -5 0 -10 -7 -10 -16 0 -13 -5 -12 -26 5 -29 23 -77 27 -109 9z m113
-44 c39 -44 21 -113 -36 -135 -56 -21 -121 39 -107 101 15 69 94 88 143 34z"/>
<path d="M8107 2570 c-59 -47 -56 -143 7 -181 40 -24 73 -24 114 1 62 38 68
122 12 173 -38 34 -95 37 -133 7z m121 -33 c31 -29 30 -86 -3 -117 -71 -67
-175 28 -119 108 31 45 78 49 122 9z"/>
<path d="M8371 2576 c-58 -32 -69 -119 -22 -167 24 -23 38 -29 73 -29 24 0 54
7 66 16 20 14 22 14 22 -4 0 -11 -9 -31 -21 -46 -27 -34 -91 -37 -125 -5 -34
32 -54 19 -22 -14 23 -23 36 -27 83 -27 46 0 60 4 80 25 24 23 25 30 25 140 0
70 -4 115 -10 115 -5 0 -10 -7 -10 -16 0 -13 -5 -12 -26 5 -30 24 -78 27 -113
7z m117 -42 c63 -71 -27 -173 -106 -118 -53 37 -52 102 1 135 39 24 73 18 105
-17z"/>
<path d="M8630 2580 c-8 -5 -23 -7 -32 -4 -16 5 -18 -4 -18 -95 0 -61 4 -101
10 -101 6 0 10 21 10 48 0 86 25 139 65 140 5 0 11 5 13 11 5 14 -28 14 -48 1z"/>
<path d="M8748 2574 c-36 -19 -48 -43 -48 -97 0 -84 82 -131 155 -88 28 16 35
17 35 6 0 -8 5 -15 10 -15 6 0 10 40 10 100 0 60 -4 100 -10 100 -5 0 -10 -7
-10 -16 0 -13 -5 -12 -26 5 -31 24 -78 26 -116 5z m120 -40 c29 -33 28 -76 -2
-110 -67 -79 -189 19 -130 104 33 48 92 50 132 6z"/>
<path d="M9211 2576 c-33 -18 -50 -53 -51 -102 0 -74 75 -120 154 -94 41 13
63 35 46 45 -6 4 -20 -1 -31 -11 -46 -41 -133 -11 -145 51 -15 83 85 135 149
77 13 -11 20 -13 29 -4 8 8 2 16 -23 31 -39 24 -93 27 -128 7z"/>
<path d="M9461 2576 c-55 -31 -68 -114 -25 -165 32 -39 81 -49 126 -27 20 11
34 13 36 6 2 -5 8 -10 13 -10 5 0 9 45 9 100 0 55 -4 100 -9 100 -5 0 -11 -5
-13 -12 -3 -8 -11 -7 -28 5 -29 20 -76 21 -109 3z m117 -38 c65 -62 -16 -175
-96 -134 -41 21 -58 66 -42 106 25 59 90 72 138 28z"/>
<path d="M10210 2577 c-14 -7 -33 -29 -43 -49 -25 -51 -9 -111 36 -138 39 -24
68 -25 110 -4 21 12 32 13 35 5 2 -6 8 -11 13 -11 5 0 9 45 9 100 0 55 -4 100
-9 100 -5 0 -11 -5 -13 -12 -3 -8 -11 -7 -28 5 -29 20 -75 22 -110 4z m112
-34 c41 -37 30 -111 -21 -138 -38 -19 -75 -11 -101 22 -64 82 45 185 122 116z"/>
<path d="M4250 2480 c0 -60 4 -100 10 -100 6 0 10 40 10 100 0 60 -4 100 -10
100 -6 0 -10 -40 -10 -100z"/>
<path d="M4400 2501 c0 -101 16 -126 84 -126 69 0 86 23 93 124 5 71 4 81 -11
81 -13 0 -16 -12 -16 -73 0 -83 -16 -109 -67 -109 -44 0 -63 33 -63 113 0 39
-4 69 -10 69 -6 0 -10 -33 -10 -79z"/>
<path d="M5000 2480 c0 -60 4 -100 10 -100 6 0 10 40 10 100 0 60 -4 100 -10
100 -6 0 -10 -40 -10 -100z"/>
<path d="M6740 2480 c0 -60 4 -100 10 -100 6 0 10 40 10 100 0 60 -4 100 -10
100 -6 0 -10 -40 -10 -100z"/>
<path d="M9090 2480 c0 -60 4 -100 10 -100 6 0 10 40 10 100 0 60 -4 100 -10
100 -6 0 -10 -40 -10 -100z"/>
<path d="M10420 2400 c0 -15 5 -20 18 -18 9 2 17 10 17 18 0 8 -8 16 -17 18
-13 2 -18 -3 -18 -18z"/>
</g>
</svg>
